<?xml version="1.0" encoding="utf-8"?>
<!DOCTYPE svg PUBLIC "-//W3C//DTD SVG 1.1//EN" "http://www.w3.org/Graphics/SVG/1.1/DTD/svg11.dtd">
<svg version="1.1" xmlns="http://www.w3.org/2000/svg" xmlns:xlink="http://www.w3.org/1999/xlink" x="0px" y="0px" viewBox="0 0 1000 1000" enable-background="new 0 0 1000 1000" xml:space="preserve">
  <g>
    <g>
      <g>
        <path d="M49,361.2c21.5,0,39-17.5,39-39V88.1h234.2c21.5,0,39-17.5,39-39c0-21.6-17.5-39-39-39H49c-21.5,0-39,17.5-39,39v273.2C10,343.8,27.5,361.2,49,361.2z"/><path d="M677.8,88.1h234.2v234.1c0,21.6,17.5,39,39,39s39-17.5,39-39V49c0-21.6-17.5-39-39-39H677.8c-21.5,0-39,17.5-39,39C638.8,70.6,656.2,88.1,677.8,88.1z"/><path d="M677.8,990H951c21.5,0,39-17.5,39-39V677.8c0-21.6-17.5-39-39-39s-39,17.5-39,39v234.2H677.8c-21.5,0-39,17.5-39,39C638.8,972.5,656.2,990,677.8,990z"/><path d="M49,990h273.2c21.5,0,39-17.5,39-39c0-21.6-17.5-39-39-39H88.1V677.8c0-21.6-17.5-39-39-39c-21.5,0-39,17.5-39,39V951C10,972.5,27.5,990,49,990z"/>
      </g>
    </g>
  </g>
</svg>
